Coordinates
nRows=81
nColumns=2
inDegrees=yes
endheader
time	ankle_angle_r	
4.36593	  9.322913	
4.4375	  9.265943	
4.50907	  9.240755	
4.58065	  9.261876	
4.65222	  9.287757	
4.72379	  9.246943	
4.79536	  9.205907	
4.86694	  9.258305	
4.93851	  9.295453	
5.01008	  9.228044	
5.08165	  9.203455	
5.15323	  9.256448	
5.2248	  9.245059	
5.29637	  9.219010	
5.36794	  9.237038	
5.43952	  9.257374	
5.51109	  9.260558	
5.58266	  9.221467	
5.65423	  9.212339	
5.72581	  9.242158	
5.79738	  9.237723	
5.86895	  9.242088	
5.94052	  9.310105	
6.0121	  9.369066	
6.08367	  9.320760	
6.15524	  9.260928	
6.22681	  9.275612	
6.29839	  9.314314	
6.36996	  9.293329	
6.44153	  9.211268	
6.5131	  9.240204	
6.58468	  9.307854	
6.65625	  9.285898	
6.72782	  9.290575	
6.7994	  9.310665	
6.87097	  9.309569	
6.94254	  9.272342	
7.01411	  9.230120	
7.08569	  9.295459	
7.15726	  9.346694	
7.22883	  9.263053	
7.3004	  9.209667	
7.37198	  9.266647	
7.44355	  9.313277	
7.51512	  9.293225	
7.58669	  9.252322	
7.65827	  9.268375	
7.72984	  9.296327	
7.80141	  9.248078	
7.87298	  9.210755	
7.94456	  9.250154	
8.01613	  9.299904	
8.0877	  9.274190	
8.15927	  9.223996	
8.23085	  9.277739	
8.30242	  9.322882	
8.37399	  9.270426	
8.44556	  9.260894	
8.51714	  9.296783	
8.58871	  9.278257	
8.66028	  9.205866	
8.73185	  9.180207	
8.80343	  9.244500	
8.875	  9.297201	
8.94657	  9.284830	
9.01815	  9.261116	
9.08972	  9.273810	
9.16129	  9.275145	
9.23286	  9.234943	
9.30444	  9.192899	
9.37601	  9.214461	
9.44758	  9.288073	
9.51915	  9.264520	
9.59073	  9.212819	
9.6623	  9.264236	
9.73387	  9.284139	
9.80544	  9.246516	
9.87702	  9.257219	
9.94859	  9.273809	
10.0202	  9.233870	
10.0917	  9.164668	
